<svg class="rich-terminal" viewBox="0 0 1726 928.4" xmlns="http://www.w3.org/2000/svg">
    <!-- Generated with Rich https://www.textualize.io -->
    <style>

    @font-face {
        font-family: "Fira Code";
        src: local("FiraCode-Regular"),
                url("https://cdnjs.cloudflare.com/ajax/libs/firacode/6.2.0/woff2/FiraCode-Regular.woff2") format("woff2"),
                url("https://cdnjs.cloudflare.com/ajax/libs/firacode/6.2.0/woff/FiraCode-Regular.woff") format("woff");
        font-style: normal;
        font-weight: 400;
    }
    @font-face {
        font-family: "Fira Code";
        src: local("FiraCode-Bold"),
                url("https://cdnjs.cloudflare.com/ajax/libs/firacode/6.2.0/woff2/FiraCode-Bold.woff2") format("woff2"),
                url("https://cdnjs.cloudflare.com/ajax/libs/firacode/6.2.0/woff/FiraCode-Bold.woff") format("woff");
        font-style: bold;
        font-weight: 700;
    }

    .terminal-2546621873-matrix {
        font-family: Fira Code, monospace;
        font-size: 20px;
        line-height: 24.4px;
        font-variant-east-asian: full-width;
    }

    .terminal-2546621873-title {
        font-size: 18px;
        font-weight: bold;
        font-family: arial;
    }

    .terminal-2546621873-r1 { fill: #c5c8c6 }
.terminal-2546621873-r2 { fill: #e0e0e0 }
.terminal-2546621873-r3 { fill: #a0a3a6 }
.terminal-2546621873-r4 { fill: #c5c6c7 }
.terminal-2546621873-r5 { fill: #a0a0a0 }
.terminal-2546621873-r6 { fill: #e0e0e0;font-weight: bold }
.terminal-2546621873-r7 { fill: #ddedf9;font-weight: bold }
.terminal-2546621873-r8 { fill: #272727 }
.terminal-2546621873-r9 { fill: #003054 }
.terminal-2546621873-r10 { fill: #ffa62b;font-weight: bold }
.terminal-2546621873-r11 { fill: #495259 }
    </style>

    <defs>
    <clipPath id="terminal-2546621873-clip-terminal">
      <rect x="0" y="0" width="1707.0" height="877.4" />
    </clipPath>
    <clipPath id="terminal-2546621873-line-0">
    <rect x="0" y="1.5" width="1708" height="24.65"/>
            </clipPath>
<clipPath id="terminal-2546621873-line-1">
    <rect x="0" y="25.9" width="1708" height="24.65"/>
            </clipPath>
<clipPath id="terminal-2546621873-line-2">
    <rect x="0" y="50.3" width="1708" height="24.65"/>
            </clipPath>
<clipPath id="terminal-2546621873-line-3">
    <rect x="0" y="74.7" width="1708" height="24.65"/>
            </clipPath>
<clipPath id="terminal-2546621873-line-4">
    <rect x="0" y="99.1" width="1708" height="24.65"/>
            </clipPath>
<clipPath id="terminal-2546621873-line-5">
    <rect x="0" y="123.5" width="1708" height="24.65"/>
            </clipPath>
<clipPath id="terminal-2546621873-line-6">
    <rect x="0" y="147.9" width="1708" height="24.65"/>
            </clipPath>
<clipPath id="terminal-2546621873-line-7">
    <rect x="0" y="172.3" width="1708" height="24.65"/>
            </clipPath>
<clipPath id="terminal-2546621873-line-8">
    <rect x="0" y="196.7" width="1708" height="24.65"/>
            </clipPath>
<clipPath id="terminal-2546621873-line-9">
    <rect x="0" y="221.1" width="1708" height="24.65"/>
            </clipPath>
<clipPath id="terminal-2546621873-line-10">
    <rect x="0" y="245.5" width="1708" height="24.65"/>
            </clipPath>
<clipPath id="terminal-2546621873-line-11">
    <rect x="0" y="269.9" width="1708" height="24.65"/>
            </clipPath>
<clipPath id="terminal-2546621873-line-12">
    <rect x="0" y="294.3" width="1708" height="24.65"/>
            </clipPath>
<clipPath id="terminal-2546621873-line-13">
    <rect x="0" y="318.7" width="1708" height="24.65"/>
            </clipPath>
<clipPath id="terminal-2546621873-line-14">
    <rect x="0" y="343.1" width="1708" height="24.65"/>
            </clipPath>
<clipPath id="terminal-2546621873-line-15">
    <rect x="0" y="367.5" width="1708" height="24.65"/>
            </clipPath>
<clipPath id="terminal-2546621873-line-16">
    <rect x="0" y="391.9" width="1708" height="24.65"/>
            </clipPath>
<clipPath id="terminal-2546621873-line-17">
    <rect x="0" y="416.3" width="1708" height="24.65"/>
            </clipPath>
<clipPath id="terminal-2546621873-line-18">
    <rect x="0" y="440.7" width="1708" height="24.65"/>
            </clipPath>
<clipPath id="terminal-2546621873-line-19">
    <rect x="0" y="465.1" width="1708" height="24.65"/>
            </clipPath>
<clipPath id="terminal-2546621873-line-20">
    <rect x="0" y="489.5" width="1708" height="24.65"/>
            </clipPath>
<clipPath id="terminal-2546621873-line-21">
    <rect x="0" y="513.9" width="1708" height="24.65"/>
            </clipPath>
<clipPath id="terminal-2546621873-line-22">
    <rect x="0" y="538.3" width="1708" height="24.65"/>
            </clipPath>
<clipPath id="terminal-2546621873-line-23">
    <rect x="0" y="562.7" width="1708" height="24.65"/>
            </clipPath>
<clipPath id="terminal-2546621873-line-24">
    <rect x="0" y="587.1" width="1708" height="24.65"/>
            </clipPath>
<clipPath id="terminal-2546621873-line-25">
    <rect x="0" y="611.5" width="1708" height="24.65"/>
            </clipPath>
<clipPath id="terminal-2546621873-line-26">
    <rect x="0" y="635.9" width="1708" height="24.65"/>
            </clipPath>
<clipPath id="terminal-2546621873-line-27">
    <rect x="0" y="660.3" width="1708" height="24.65"/>
            </clipPath>
<clipPath id="terminal-2546621873-line-28">
    <rect x="0" y="684.7" width="1708" height="24.65"/>
            </clipPath>
<clipPath id="terminal-2546621873-line-29">
    <rect x="0" y="709.1" width="1708" height="24.65"/>
            </clipPath>
<clipPath id="terminal-2546621873-line-30">
    <rect x="0" y="733.5" width="1708" height="24.65"/>
            </clipPath>
<clipPath id="terminal-2546621873-line-31">
    <rect x="0" y="757.9" width="1708" height="24.65"/>
            </clipPath>
<clipPath id="terminal-2546621873-line-32">
    <rect x="0" y="782.3" width="1708" height="24.65"/>
            </clipPath>
<clipPath id="terminal-2546621873-line-33">
    <rect x="0" y="806.7" width="1708" height="24.65"/>
            </clipPath>
<clipPath id="terminal-2546621873-line-34">
    <rect x="0" y="831.1" width="1708" height="24.65"/>
            </clipPath>
    </defs>

    <rect fill="#292929" stroke="rgba(255,255,255,0.35)" stroke-width="1" x="1" y="1" width="1724" height="926.4" rx="8"/><text class="terminal-2546621873-title" fill="#c5c8c6" text-anchor="middle" x="862" y="27">PokeDrop&#160;—&#160;prep&#160;checklist&#160;(p)</text>
            <g transform="translate(26,22)">
            <circle cx="0" cy="0" r="7" fill="#ff5f57"/>
            <circle cx="22" cy="0" r="7" fill="#febc2e"/>
            <circle cx="44" cy="0" r="7" fill="#28c840"/>
            </g>
        
    <g transform="translate(9, 41)" clip-path="url(#terminal-2546621873-clip-terminal)">
    <rect fill="#242f38" x="0" y="1.5" width="12.2" height="24.65" shape-rendering="crispEdges"/><rect fill="#242f38" x="12.2" y="1.5" width="12.2" height="24.65" shape-rendering="crispEdges"/><rect fill="#242f38" x="24.4" y="1.5" width="61" height="24.65" shape-rendering="crispEdges"/><rect fill="#242f38" x="85.4" y="1.5" width="12.2" height="24.65" shape-rendering="crispEdges"/><rect fill="#242f38" x="97.6" y="1.5" width="488" height="24.65" shape-rendering="crispEdges"/><rect fill="#242f38" x="585.6" y="1.5" width="97.6" height="24.65" shape-rendering="crispEdges"/><rect fill="#242f38" x="683.2" y="1.5" width="36.6" height="24.65" shape-rendering="crispEdges"/><rect fill="#242f38" x="719.8" y="1.5" width="378.2" height="24.65" shape-rendering="crispEdges"/><rect fill="#242f38" x="1098" y="1.5" width="488" height="24.65" shape-rendering="crispEdges"/><rect fill="#2c363f" x="1586" y="1.5" width="12.2" height="24.65" shape-rendering="crispEdges"/><rect fill="#2c363f" x="1598.2" y="1.5" width="97.6" height="24.65" shape-rendering="crispEdges"/><rect fill="#2c363f" x="1695.8" y="1.5" width="12.2" height="24.65" shape-rendering="crispEdges"/><rect fill="#121212" x="0" y="25.9" width="695.4" height="24.65" shape-rendering="crispEdges"/><rect fill="#121212" x="695.4" y="25.9" width="1012.6" height="24.65" shape-rendering="crispEdges"/><rect fill="#2d3740" x="0" y="50.3" width="73.2" height="24.65" shape-rendering="crispEdges"/><rect fill="#2d3740" x="73.2" y="50.3" width="219.6" height="24.65" shape-rendering="crispEdges"/><rect fill="#2d3740" x="292.8" y="50.3" width="1415.2" height="24.65" shape-rendering="crispEdges"/><rect fill="#272727" x="0" y="74.7" width="73.2" height="24.65" shape-rendering="crispEdges"/><rect fill="#272727" x="73.2" y="74.7" width="219.6" height="24.65" shape-rendering="crispEdges"/><rect fill="#272727" x="292.8" y="74.7" width="1415.2" height="24.65" shape-rendering="crispEdges"/><rect fill="#272727" x="0" y="99.1" width="73.2" height="24.65" shape-rendering="crispEdges"/><rect fill="#272727" x="73.2" y="99.1" width="219.6" height="24.65" shape-rendering="crispEdges"/><rect fill="#272727" x="292.8" y="99.1" width="1415.2" height="24.65" shape-rendering="crispEdges"/><rect fill="#272727" x="0" y="123.5" width="73.2" height="24.65" shape-rendering="crispEdges"/><rect fill="#272727" x="73.2" y="123.5" width="219.6" height="24.65" shape-rendering="crispEdges"/><rect fill="#272727" x="292.8" y="123.5" width="1415.2" height="24.65" shape-rendering="crispEdges"/><rect fill="#272727" x="0" y="147.9" width="73.2" height="24.65" shape-rendering="crispEdges"/><rect fill="#272727" x="73.2" y="147.9" width="219.6" height="24.65" shape-rendering="crispEdges"/><rect fill="#272727" x="292.8" y="147.9" width="1415.2" height="24.65" shape-rendering="crispEdges"/><rect fill="#0178d4" x="0" y="172.3" width="73.2" height="24.65" shape-rendering="crispEdges"/><rect fill="#0178d4" x="73.2" y="172.3" width="219.6" height="24.65" shape-rendering="crispEdges"/><rect fill="#0178d4" x="292.8" y="172.3" width="1415.2" height="24.65" shape-rendering="crispEdges"/><rect fill="#272727" x="0" y="196.7" width="73.2" height="24.65" shape-rendering="crispEdges"/><rect fill="#272727" x="73.2" y="196.7" width="219.6" height="24.65" shape-rendering="crispEdges"/><rect fill="#272727" x="292.8" y="196.7" width="1415.2" height="24.65" shape-rendering="crispEdges"/><rect fill="#272727" x="0" y="221.1" width="73.2" height="24.65" shape-rendering="crispEdges"/><rect fill="#272727" x="73.2" y="221.1" width="219.6" height="24.65" shape-rendering="crispEdges"/><rect fill="#272727" x="292.8" y="221.1" width="1415.2" height="24.65" shape-rendering="crispEdges"/><rect fill="#272727" x="0" y="245.5" width="73.2" height="24.65" shape-rendering="crispEdges"/><rect fill="#272727" x="73.2" y="245.5" width="219.6" height="24.65" shape-rendering="crispEdges"/><rect fill="#272727" x="292.8" y="245.5" width="1415.2" height="24.65" shape-rendering="crispEdges"/><rect fill="#272727" x="0" y="269.9" width="73.2" height="24.65" shape-rendering="crispEdges"/><rect fill="#272727" x="73.2" y="269.9" width="219.6" height="24.65" shape-rendering="crispEdges"/><rect fill="#272727" x="292.8" y="269.9" width="1415.2" height="24.65" shape-rendering="crispEdges"/><rect fill="#272727" x="0" y="294.3" width="73.2" height="24.65" shape-rendering="crispEdges"/><rect fill="#272727" x="73.2" y="294.3" width="219.6" height="24.65" shape-rendering="crispEdges"/><rect fill="#272727" x="292.8" y="294.3" width="1415.2" height="24.65" shape-rendering="crispEdges"/><rect fill="#272727" x="0" y="318.7" width="73.2" height="24.65" shape-rendering="crispEdges"/><rect fill="#272727" x="73.2" y="318.7" width="219.6" height="24.65" shape-rendering="crispEdges"/><rect fill="#272727" x="292.8" y="318.7" width="1415.2" height="24.65" shape-rendering="crispEdges"/><rect fill="#272727" x="0" y="343.1" width="73.2" height="24.65" shape-rendering="crispEdges"/><rect fill="#272727" x="73.2" y="343.1" width="219.6" height="24.65" shape-rendering="crispEdges"/><rect fill="#272727" x="292.8" y="343.1" width="1415.2" height="24.65" shape-rendering="crispEdges"/><rect fill="#272727" x="0" y="367.5" width="73.2" height="24.65" shape-rendering="crispEdges"/><rect fill="#272727" x="73.2" y="367.5" width="219.6" height="24.65" shape-rendering="crispEdges"/><rect fill="#272727" x="292.8" y="367.5" width="1415.2" height="24.65" shape-rendering="crispEdges"/><rect fill="#272727" x="0" y="391.9" width="73.2" height="24.65" shape-rendering="crispEdges"/><rect fill="#272727" x="73.2" y="391.9" width="219.6" height="24.65" shape-rendering="crispEdges"/><rect fill="#272727" x="292.8" y="391.9" width="1415.2" height="24.65" shape-rendering="crispEdges"/><rect fill="#272727" x="0" y="416.3" width="73.2" height="24.65" shape-rendering="crispEdges"/><rect fill="#272727" x="73.2" y="416.3" width="219.6" height="24.65" shape-rendering="crispEdges"/><rect fill="#272727" x="292.8" y="416.3" width="1415.2" height="24.65" shape-rendering="crispEdges"/><rect fill="#272727" x="0" y="440.7" width="73.2" height="24.65" shape-rendering="crispEdges"/><rect fill="#272727" x="73.2" y="440.7" width="219.6" height="24.65" shape-rendering="crispEdges"/><rect fill="#272727" x="292.8" y="440.7" width="1415.2" height="24.65" shape-rendering="crispEdges"/><rect fill="#003054" x="0" y="465.1" width="12.2" height="24.65" shape-rendering="crispEdges"/><rect fill="#003054" x="12.2" y="465.1" width="12.2" height="24.65" shape-rendering="crispEdges"/><rect fill="#003054" x="24.4" y="465.1" width="12.2" height="24.65" shape-rendering="crispEdges"/><rect fill="#003054" x="36.6" y="465.1" width="12.2" height="24.65" shape-rendering="crispEdges"/><rect fill="#003054" x="48.8" y="465.1" width="12.2" height="24.65" shape-rendering="crispEdges"/><rect fill="#003054" x="61" y="465.1" width="12.2" height="24.65" shape-rendering="crispEdges"/><rect fill="#003054" x="73.2" y="465.1" width="12.2" height="24.65" shape-rendering="crispEdges"/><rect fill="#003054" x="85.4" y="465.1" width="12.2" height="24.65" shape-rendering="crispEdges"/><rect fill="#003054" x="97.6" y="465.1" width="12.2" height="24.65" shape-rendering="crispEdges"/><rect fill="#003054" x="109.8" y="465.1" width="12.2" height="24.65" shape-rendering="crispEdges"/><rect fill="#003054" x="122" y="465.1" width="12.2" height="24.65" shape-rendering="crispEdges"/><rect fill="#003054" x="134.2" y="465.1" width="12.2" height="24.65" shape-rendering="crispEdges"/><rect fill="#003054" x="146.4" y="465.1" width="12.2" height="24.65" shape-rendering="crispEdges"/><rect fill="#003054" x="158.6" y="465.1" width="12.2" height="24.65" shape-rendering="crispEdges"/><rect fill="#003054" x="170.8" y="465.1" width="12.2" height="24.65" shape-rendering="crispEdges"/><rect fill="#003054" x="183" y="465.1" width="12.2" height="24.65" shape-rendering="crispEdges"/><rect fill="#003054" x="195.2" y="465.1" width="12.2" height="24.65" shape-rendering="crispEdges"/><rect fill="#003054" x="207.4" y="465.1" width="12.2" height="24.65" shape-rendering="crispEdges"/><rect fill="#003054" x="219.6" y="465.1" width="12.2" height="24.65" shape-rendering="crispEdges"/><rect fill="#003054" x="231.8" y="465.1" width="12.2" height="24.65" shape-rendering="crispEdges"/><rect fill="#003054" x="244" y="465.1" width="12.2" height="24.65" shape-rendering="crispEdges"/><rect fill="#003054" x="256.2" y="465.1" width="12.2" height="24.65" shape-rendering="crispEdges"/><rect fill="#003054" x="268.4" y="465.1" width="12.2" height="24.65" shape-rendering="crispEdges"/><rect fill="#003054" x="280.6" y="465.1" width="12.2" height="24.65" shape-rendering="crispEdges"/><rect fill="#003054" x="292.8" y="465.1" width="12.2" height="24.65" shape-rendering="crispEdges"/><rect fill="#003054" x="305" y="465.1" width="12.2" height="24.65" shape-rendering="crispEdges"/><rect fill="#003054" x="317.2" y="465.1" width="12.2" height="24.65" shape-rendering="crispEdges"/><rect fill="#003054" x="329.4" y="465.1" width="12.2" height="24.65" shape-rendering="crispEdges"/><rect fill="#003054" x="341.6" y="465.1" width="12.2" height="24.65" shape-rendering="crispEdges"/><rect fill="#003054" x="353.8" y="465.1" width="12.2" height="24.65" shape-rendering="crispEdges"/><rect fill="#003054" x="366" y="465.1" width="12.2" height="24.65" shape-rendering="crispEdges"/><rect fill="#003054" x="378.2" y="465.1" width="12.2" height="24.65" shape-rendering="crispEdges"/><rect fill="#003054" x="390.4" y="465.1" width="12.2" height="24.65" shape-rendering="crispEdges"/><rect fill="#003054" x="402.6" y="465.1" width="12.2" height="24.65" shape-rendering="crispEdges"/><rect fill="#003054" x="414.8" y="465.1" width="12.2" height="24.65" shape-rendering="crispEdges"/><rect fill="#003054" x="427" y="465.1" width="12.2" height="24.65" shape-rendering="crispEdges"/><rect fill="#003054" x="439.2" y="465.1" width="12.2" height="24.65" shape-rendering="crispEdges"/><rect fill="#003054" x="451.4" y="465.1" width="12.2" height="24.65" shape-rendering="crispEdges"/><rect fill="#003054" x="463.6" y="465.1" width="12.2" height="24.65" shape-rendering="crispEdges"/><rect fill="#003054" x="475.8" y="465.1" width="12.2" height="24.65" shape-rendering="crispEdges"/><rect fill="#003054" x="488" y="465.1" width="12.2" height="24.65" shape-rendering="crispEdges"/><rect fill="#003054" x="500.2" y="465.1" width="12.2" height="24.65" shape-rendering="crispEdges"/><rect fill="#003054" x="512.4" y="465.1" width="12.2" height="24.65" shape-rendering="crispEdges"/><rect fill="#003054" x="524.6" y="465.1" width="12.2" height="24.65" shape-rendering="crispEdges"/><rect fill="#003054" x="536.8" y="465.1" width="12.2" height="24.65" shape-rendering="crispEdges"/><rect fill="#003054" x="549" y="465.1" width="12.2" height="24.65" shape-rendering="crispEdges"/><rect fill="#003054" x="561.2" y="465.1" width="12.2" height="24.65" shape-rendering="crispEdges"/><rect fill="#003054" x="573.4" y="465.1" width="12.2" height="24.65" shape-rendering="crispEdges"/><rect fill="#003054" x="585.6" y="465.1" width="12.2" height="24.65" shape-rendering="crispEdges"/><rect fill="#003054" x="597.8" y="465.1" width="12.2" height="24.65" shape-rendering="crispEdges"/><rect fill="#003054" x="610" y="465.1" width="12.2" height="24.65" shape-rendering="crispEdges"/><rect fill="#003054" x="622.2" y="465.1" width="12.2" height="24.65" shape-rendering="crispEdges"/><rect fill="#003054" x="634.4" y="465.1" width="12.2" height="24.65" shape-rendering="crispEdges"/><rect fill="#003054" x="646.6" y="465.1" width="12.2" height="24.65" shape-rendering="crispEdges"/><rect fill="#003054" x="658.8" y="465.1" width="12.2" height="24.65" shape-rendering="crispEdges"/><rect fill="#003054" x="671" y="465.1" width="12.2" height="24.65" shape-rendering="crispEdges"/><rect fill="#003054" x="683.2" y="465.1" width="12.2" height="24.65" shape-rendering="crispEdges"/><rect fill="#003054" x="695.4" y="465.1" width="12.2" height="24.65" shape-rendering="crispEdges"/><rect fill="#003054" x="707.6" y="465.1" width="12.2" height="24.65" shape-rendering="crispEdges"/><rect fill="#003054" x="719.8" y="465.1" width="12.2" height="24.65" shape-rendering="crispEdges"/><rect fill="#003054" x="732" y="465.1" width="12.2" height="24.65" shape-rendering="crispEdges"/><rect fill="#003054" x="744.2" y="465.1" width="12.2" height="24.65" shape-rendering="crispEdges"/><rect fill="#003054" x="756.4" y="465.1" width="12.2" height="24.65" shape-rendering="crispEdges"/><rect fill="#003054" x="768.6" y="465.1" width="12.2" height="24.65" shape-rendering="crispEdges"/><rect fill="#003054" x="780.8" y="465.1" width="12.2" height="24.65" shape-rendering="crispEdges"/><rect fill="#003054" x="793" y="465.1" width="12.2" height="24.65" shape-rendering="crispEdges"/><rect fill="#003054" x="805.2" y="465.1" width="12.2" height="24.65" shape-rendering="crispEdges"/><rect fill="#003054" x="817.4" y="465.1" width="12.2" height="24.65" shape-rendering="crispEdges"/><rect fill="#003054" x="829.6" y="465.1" width="12.2" height="24.65" shape-rendering="crispEdges"/><rect fill="#003054" x="841.8" y="465.1" width="12.2" height="24.65" shape-rendering="crispEdges"/><rect fill="#003054" x="854" y="465.1" width="12.2" height="24.65" shape-rendering="crispEdges"/><rect fill="#003054" x="866.2" y="465.1" width="12.2" height="24.65" shape-rendering="crispEdges"/><rect fill="#003054" x="878.4" y="465.1" width="12.2" height="24.65" shape-rendering="crispEdges"/><rect fill="#003054" x="890.6" y="465.1" width="12.2" height="24.65" shape-rendering="crispEdges"/><rect fill="#003054" x="902.8" y="465.1" width="12.2" height="24.65" shape-rendering="crispEdges"/><rect fill="#003054" x="915" y="465.1" width="12.2" height="24.65" shape-rendering="crispEdges"/><rect fill="#003054" x="927.2" y="465.1" width="12.2" height="24.65" shape-rendering="crispEdges"/><rect fill="#003054" x="939.4" y="465.1" width="12.2" height="24.65" shape-rendering="crispEdges"/><rect fill="#003054" x="951.6" y="465.1" width="12.2" height="24.65" shape-rendering="crispEdges"/><rect fill="#003054" x="963.8" y="465.1" width="12.2" height="24.65" shape-rendering="crispEdges"/><rect fill="#003054" x="976" y="465.1" width="12.2" height="24.65" shape-rendering="crispEdges"/><rect fill="#003054" x="988.2" y="465.1" width="12.2" height="24.65" shape-rendering="crispEdges"/><rect fill="#003054" x="1000.4" y="465.1" width="12.2" height="24.65" shape-rendering="crispEdges"/><rect fill="#003054" x="1012.6" y="465.1" width="12.2" height="24.65" shape-rendering="crispEdges"/><rect fill="#003054" x="1024.8" y="465.1" width="12.2" height="24.65" shape-rendering="crispEdges"/><rect fill="#003054" x="1037" y="465.1" width="12.2" height="24.65" shape-rendering="crispEdges"/><rect fill="#003054" x="1049.2" y="465.1" width="12.2" height="24.65" shape-rendering="crispEdges"/><rect fill="#003054" x="1061.4" y="465.1" width="12.2" height="24.65" shape-rendering="crispEdges"/><rect fill="#003054" x="1073.6" y="465.1" width="12.2" height="24.65" shape-rendering="crispEdges"/><rect fill="#003054" x="1085.8" y="465.1" width="12.2" height="24.65" shape-rendering="crispEdges"/><rect fill="#003054" x="1098" y="465.1" width="12.2" height="24.65" shape-rendering="crispEdges"/><rect fill="#003054" x="1110.2" y="465.1" width="12.2" height="24.65" shape-rendering="crispEdges"/><rect fill="#003054" x="1122.4" y="465.1" width="12.2" height="24.65" shape-rendering="crispEdges"/><rect fill="#003054" x="1134.6" y="465.1" width="12.2" height="24.65" shape-rendering="crispEdges"/><rect fill="#003054" x="1146.8" y="465.1" width="12.2" height="24.65" shape-rendering="crispEdges"/><rect fill="#003054" x="1159" y="465.1" width="12.2" height="24.65" shape-rendering="crispEdges"/><rect fill="#003054" x="1171.2" y="465.1" width="12.2" height="24.65" shape-rendering="crispEdges"/><rect fill="#003054" x="1183.4" y="465.1" width="12.2" height="24.65" shape-rendering="crispEdges"/><rect fill="#003054" x="1195.6" y="465.1" width="12.2" height="24.65" shape-rendering="crispEdges"/><rect fill="#003054" x="1207.8" y="465.1" width="12.2" height="24.65" shape-rendering="crispEdges"/><rect fill="#003054" x="1220" y="465.1" width="12.2" height="24.65" shape-rendering="crispEdges"/><rect fill="#003054" x="1232.2" y="465.1" width="12.2" height="24.65" shape-rendering="crispEdges"/><rect fill="#003054" x="1244.4" y="465.1" width="12.2" height="24.65" shape-rendering="crispEdges"/><rect fill="#003054" x="1256.6" y="465.1" width="12.2" height="24.65" shape-rendering="crispEdges"/><rect fill="#003054" x="1268.8" y="465.1" width="12.2" height="24.65" shape-rendering="crispEdges"/><rect fill="#003054" x="1281" y="465.1" width="12.2" height="24.65" shape-rendering="crispEdges"/><rect fill="#003054" x="1293.2" y="465.1" width="12.2" height="24.65" shape-rendering="crispEdges"/><rect fill="#003054" x="1305.4" y="465.1" width="12.2" height="24.65" shape-rendering="crispEdges"/><rect fill="#003054" x="1317.6" y="465.1" width="12.2" height="24.65" shape-rendering="crispEdges"/><rect fill="#003054" x="1329.8" y="465.1" width="12.2" height="24.65" shape-rendering="crispEdges"/><rect fill="#003054" x="1342" y="465.1" width="12.2" height="24.65" shape-rendering="crispEdges"/><rect fill="#003054" x="1354.2" y="465.1" width="12.2" height="24.65" shape-rendering="crispEdges"/><rect fill="#000000" x="1366.4" y="465.1" width="12.2" height="24.65" shape-rendering="crispEdges"/><rect fill="#000000" x="1378.6" y="465.1" width="12.2" height="24.65" shape-rendering="crispEdges"/><rect fill="#000000" x="1390.8" y="465.1" width="12.2" height="24.65" shape-rendering="crispEdges"/><rect fill="#000000" x="1403" y="465.1" width="12.2" height="24.65" shape-rendering="crispEdges"/><rect fill="#000000" x="1415.2" y="465.1" width="12.2" height="24.65" shape-rendering="crispEdges"/><rect fill="#000000" x="1427.4" y="465.1" width="12.2" height="24.65" shape-rendering="crispEdges"/><rect fill="#000000" x="1439.6" y="465.1" width="12.2" height="24.65" shape-rendering="crispEdges"/><rect fill="#000000" x="1451.8" y="465.1" width="12.2" height="24.65" shape-rendering="crispEdges"/><rect fill="#000000" x="1464" y="465.1" width="12.2" height="24.65" shape-rendering="crispEdges"/><rect fill="#000000" x="1476.2" y="465.1" width="12.2" height="24.65" shape-rendering="crispEdges"/><rect fill="#000000" x="1488.4" y="465.1" width="12.2" height="24.65" shape-rendering="crispEdges"/><rect fill="#000000" x="1500.6" y="465.1" width="12.2" height="24.65" shape-rendering="crispEdges"/><rect fill="#000000" x="1512.8" y="465.1" width="12.2" height="24.65" shape-rendering="crispEdges"/><rect fill="#000000" x="1525" y="465.1" width="12.2" height="24.65" shape-rendering="crispEdges"/><rect fill="#000000" x="1537.2" y="465.1" width="12.2" height="24.65" shape-rendering="crispEdges"/><rect fill="#000000" x="1549.4" y="465.1" width="12.2" height="24.65" shape-rendering="crispEdges"/><rect fill="#000000" x="1561.6" y="465.1" width="12.2" height="24.65" shape-rendering="crispEdges"/><rect fill="#000000" x="1573.8" y="465.1" width="12.2" height="24.65" shape-rendering="crispEdges"/><rect fill="#000000" x="1586" y="465.1" width="12.2" height="24.65" shape-rendering="crispEdges"/><rect fill="#000000" x="1598.2" y="465.1" width="12.2" height="24.65" shape-rendering="crispEdges"/><rect fill="#000000" x="1610.4" y="465.1" width="12.2" height="24.65" shape-rendering="crispEdges"/><rect fill="#000000" x="1622.6" y="465.1" width="12.2" height="24.65" shape-rendering="crispEdges"/><rect fill="#000000" x="1634.8" y="465.1" width="12.2" height="24.65" shape-rendering="crispEdges"/><rect fill="#000000" x="1647" y="465.1" width="12.2" height="24.65" shape-rendering="crispEdges"/><rect fill="#000000" x="1659.2" y="465.1" width="12.2" height="24.65" shape-rendering="crispEdges"/><rect fill="#000000" x="1671.4" y="465.1" width="12.2" height="24.65" shape-rendering="crispEdges"/><rect fill="#000000" x="1683.6" y="465.1" width="12.2" height="24.65" shape-rendering="crispEdges"/><rect fill="#000000" x="1695.8" y="465.1" width="12.2" height="24.65" shape-rendering="crispEdges"/><rect fill="#121212" x="0" y="489.5" width="1708" height="24.65" shape-rendering="crispEdges"/><rect fill="#121212" x="0" y="513.9" width="1708" height="24.65" shape-rendering="crispEdges"/><rect fill="#121212" x="0" y="538.3" width="1708" height="24.65" shape-rendering="crispEdges"/><rect fill="#121212" x="0" y="562.7" width="1708" height="24.65" shape-rendering="crispEdges"/><rect fill="#121212" x="0" y="587.1" width="1708" height="24.65" shape-rendering="crispEdges"/><rect fill="#121212" x="0" y="611.5" width="1708" height="24.65" shape-rendering="crispEdges"/><rect fill="#121212" x="0" y="635.9" width="1708" height="24.65" shape-rendering="crispEdges"/><rect fill="#121212" x="0" y="660.3" width="1708" height="24.65" shape-rendering="crispEdges"/><rect fill="#121212" x="0" y="684.7" width="1708" height="24.65" shape-rendering="crispEdges"/><rect fill="#121212" x="0" y="709.1" width="1708" height="24.65" shape-rendering="crispEdges"/><rect fill="#121212" x="0" y="733.5" width="1708" height="24.65" shape-rendering="crispEdges"/><rect fill="#121212" x="0" y="757.9" width="1708" height="24.65" shape-rendering="crispEdges"/><rect fill="#121212" x="0" y="782.3" width="1708" height="24.65" shape-rendering="crispEdges"/><rect fill="#121212" x="0" y="806.7" width="1708" height="24.65" shape-rendering="crispEdges"/><rect fill="#121212" x="0" y="831.1" width="1708" height="24.65" shape-rendering="crispEdges"/><rect fill="#242f38" x="0" y="855.5" width="61" height="24.65" shape-rendering="crispEdges"/><rect fill="#242f38" x="61" y="855.5" width="61" height="24.65" shape-rendering="crispEdges"/><rect fill="#242f38" x="122" y="855.5" width="36.6" height="24.65" shape-rendering="crispEdges"/><rect fill="#242f38" x="158.6" y="855.5" width="122" height="24.65" shape-rendering="crispEdges"/><rect fill="#242f38" x="280.6" y="855.5" width="36.6" height="24.65" shape-rendering="crispEdges"/><rect fill="#242f38" x="317.2" y="855.5" width="158.6" height="24.65" shape-rendering="crispEdges"/><rect fill="#242f38" x="475.8" y="855.5" width="36.6" height="24.65" shape-rendering="crispEdges"/><rect fill="#242f38" x="512.4" y="855.5" width="122" height="24.65" shape-rendering="crispEdges"/><rect fill="#242f38" x="634.4" y="855.5" width="36.6" height="24.65" shape-rendering="crispEdges"/><rect fill="#242f38" x="671" y="855.5" width="61" height="24.65" shape-rendering="crispEdges"/><rect fill="#242f38" x="732" y="855.5" width="829.6" height="24.65" shape-rendering="crispEdges"/><rect fill="#242f38" x="1561.6" y="855.5" width="12.2" height="24.65" shape-rendering="crispEdges"/><rect fill="#242f38" x="1573.8" y="855.5" width="24.4" height="24.65" shape-rendering="crispEdges"/><rect fill="#242f38" x="1598.2" y="855.5" width="97.6" height="24.65" shape-rendering="crispEdges"/><rect fill="#242f38" x="1695.8" y="855.5" width="12.2" height="24.65" shape-rendering="crispEdges"/>
    <g class="terminal-2546621873-matrix">
    <text class="terminal-2546621873-r2" x="12.2" y="20" textLength="12.2" clip-path="url(#terminal-2546621873-line-0)">⭘</text><text class="terminal-2546621873-r2" x="585.6" y="20" textLength="97.6" clip-path="url(#terminal-2546621873-line-0)">PokeDrop</text><text class="terminal-2546621873-r3" x="683.2" y="20" textLength="36.6" clip-path="url(#terminal-2546621873-line-0)">&#160;—&#160;</text><text class="terminal-2546621873-r3" x="719.8" y="20" textLength="378.2" clip-path="url(#terminal-2546621873-line-0)">alert&#160;&amp;&#160;prep&#160;—&#160;you&#160;buy&#160;manually</text><text class="terminal-2546621873-r4" x="1598.2" y="20" textLength="97.6" clip-path="url(#terminal-2546621873-line-0)">15:03:02</text><text class="terminal-2546621873-r1" x="1708" y="20" textLength="12.2" clip-path="url(#terminal-2546621873-line-0)">
</text><text class="terminal-2546621873-r5" x="0" y="44.4" textLength="695.4" clip-path="url(#terminal-2546621873-line-1)">&#160;&#160;Prep&#160;checklist&#160;—&#160;Enter&#160;toggles&#160;an&#160;item,&#160;Escape&#160;returns.</text><text class="terminal-2546621873-r1" x="1708" y="44.4" textLength="12.2" clip-path="url(#terminal-2546621873-line-1)">
</text><text class="terminal-2546621873-r6" x="0" y="68.8" textLength="73.2" clip-path="url(#terminal-2546621873-line-2)">&#160;Done&#160;</text><text class="terminal-2546621873-r6" x="73.2" y="68.8" textLength="219.6" clip-path="url(#terminal-2546621873-line-2)">&#160;Retailer&#160;&#160;&#160;&#160;&#160;&#160;&#160;&#160;&#160;</text><text class="terminal-2546621873-r6" x="292.8" y="68.8" textLength="1415.2" clip-path="url(#terminal-2546621873-line-2)">&#160;Task&#160;&#160;&#160;&#160;&#160;&#160;&#160;&#160;&#160;&#160;&#160;&#160;&#160;&#160;&#160;&#160;&#160;&#160;&#160;&#160;&#160;&#160;&#160;&#160;&#160;&#160;&#160;&#160;&#160;&#160;&#160;&#160;&#160;&#160;&#160;&#160;&#160;&#160;&#160;&#160;&#160;&#160;&#160;&#160;&#160;&#160;&#160;&#160;&#160;&#160;&#160;&#160;&#160;&#160;&#160;&#160;&#160;&#160;&#160;&#160;&#160;&#160;&#160;&#160;&#160;&#160;&#160;&#160;&#160;&#160;&#160;&#160;&#160;&#160;&#160;&#160;&#160;&#160;&#160;&#160;&#160;&#160;&#160;&#160;&#160;&#160;&#160;&#160;&#160;&#160;&#160;&#160;&#160;&#160;&#160;&#160;&#160;&#160;&#160;&#160;&#160;&#160;&#160;&#160;&#160;&#160;&#160;&#160;&#160;&#160;&#160;</text><text class="terminal-2546621873-r1" x="1708" y="68.8" textLength="12.2" clip-path="url(#terminal-2546621873-line-2)">
</text><text class="terminal-2546621873-r2" x="0" y="93.2" textLength="61" clip-path="url(#terminal-2546621873-line-3)">&#160;✅&#160;&#160;&#160;</text><text class="terminal-2546621873-r2" x="73.2" y="93.2" textLength="219.6" clip-path="url(#terminal-2546621873-line-3)">&#160;PokeDrop&#160;&#160;&#160;&#160;&#160;&#160;&#160;&#160;&#160;</text><text class="terminal-2546621873-r2" x="292.8" y="93.2" textLength="1415.2" clip-path="url(#terminal-2546621873-line-3)">&#160;Create&#160;a&#160;Discord&#160;webhook&#160;and&#160;paste&#160;it&#160;into&#160;settings.yaml&#160;&#160;(Server&#160;Settings&#160;→&#160;Integrations&#160;→&#160;Webhooks&#160;→&#160;New&#160;Webhook&#160;</text><text class="terminal-2546621873-r1" x="1708" y="93.2" textLength="12.2" clip-path="url(#terminal-2546621873-line-3)">
</text><text class="terminal-2546621873-r2" x="0" y="117.6" textLength="73.2" clip-path="url(#terminal-2546621873-line-4)">&#160;⬜️&#160;&#160;&#160;</text><text class="terminal-2546621873-r2" x="73.2" y="117.6" textLength="219.6" clip-path="url(#terminal-2546621873-line-4)">&#160;PokeDrop&#160;&#160;&#160;&#160;&#160;&#160;&#160;&#160;&#160;</text><text class="terminal-2546621873-r2" x="292.8" y="117.6" textLength="1415.2" clip-path="url(#terminal-2546621873-line-4)">&#160;Set&#160;up&#160;an&#160;app&#160;password&#160;+&#160;email&#160;alerts&#160;in&#160;settings.yaml&#160;&#160;(Gmail:&#160;enable&#160;2FA,&#160;then&#160;create&#160;an&#160;App&#160;Password;&#160;use&#160;it&#160;as&#160;</text><text class="terminal-2546621873-r1" x="1708" y="117.6" textLength="12.2" clip-path="url(#terminal-2546621873-line-4)">
</text><text class="terminal-2546621873-r2" x="0" y="142" textLength="73.2" clip-path="url(#terminal-2546621873-line-5)">&#160;⬜️&#160;&#160;&#160;</text><text class="terminal-2546621873-r2" x="73.2" y="142" textLength="219.6" clip-path="url(#terminal-2546621873-line-5)">&#160;PokeDrop&#160;&#160;&#160;&#160;&#160;&#160;&#160;&#160;&#160;</text><text class="terminal-2546621873-r2" x="292.8" y="142" textLength="1415.2" clip-path="url(#terminal-2546621873-line-5)">&#160;Get&#160;a&#160;free&#160;Best&#160;Buy&#160;developer&#160;API&#160;key&#160;&#160;(https://developer.bestbuy.com/&#160;—&#160;enables&#160;clean,&#160;sanctioned&#160;stock&#160;checks.)&#160;&#160;</text><text class="terminal-2546621873-r1" x="1708" y="142" textLength="12.2" clip-path="url(#terminal-2546621873-line-5)">
</text><text class="terminal-2546621873-r2" x="0" y="166.4" textLength="73.2" clip-path="url(#terminal-2546621873-line-6)">&#160;⬜️&#160;&#160;&#160;</text><text class="terminal-2546621873-r2" x="73.2" y="166.4" textLength="219.6" clip-path="url(#terminal-2546621873-line-6)">&#160;PokeDrop&#160;&#160;&#160;&#160;&#160;&#160;&#160;&#160;&#160;</text><text class="terminal-2546621873-r2" x="292.8" y="166.4" textLength="1415.2" clip-path="url(#terminal-2546621873-line-6)">&#160;Enable&#160;the&#160;Reddit&#160;r/PokemonTCGDeals&#160;feed&#160;in&#160;settings.yaml&#160;&#160;(Best&#160;legit&#160;early-warning&#160;that&#160;a&#160;preorder&#160;just&#160;went&#160;live</text><text class="terminal-2546621873-r1" x="1708" y="166.4" textLength="12.2" clip-path="url(#terminal-2546621873-line-6)">
</text><text class="terminal-2546621873-r7" x="0" y="190.8" textLength="61" clip-path="url(#terminal-2546621873-line-7)">&#160;✅&#160;&#160;&#160;</text><text class="terminal-2546621873-r7" x="73.2" y="190.8" textLength="219.6" clip-path="url(#terminal-2546621873-line-7)">&#160;Local&#160;Game&#160;Store&#160;</text><text class="terminal-2546621873-r7" x="292.8" y="190.8" textLength="1415.2" clip-path="url(#terminal-2546621873-line-7)">&#160;Call/email&#160;your&#160;local&#160;card&#160;shop&#160;to&#160;preorder&#160;30th&#160;Celebration&#160;items&#160;&#160;(LGS&#160;allocate&#160;by&#160;order&#160;history&#160;+&#160;organized&#160;play</text><text class="terminal-2546621873-r1" x="1708" y="190.8" textLength="12.2" clip-path="url(#terminal-2546621873-line-7)">
</text><text class="terminal-2546621873-r2" x="0" y="215.2" textLength="61" clip-path="url(#terminal-2546621873-line-8)">&#160;✅&#160;&#160;&#160;</text><text class="terminal-2546621873-r2" x="73.2" y="215.2" textLength="219.6" clip-path="url(#terminal-2546621873-line-8)">&#160;Pokémon&#160;Center&#160;&#160;&#160;</text><text class="terminal-2546621873-r2" x="292.8" y="215.2" textLength="1415.2" clip-path="url(#terminal-2546621873-line-8)">&#160;Create&#160;a&#160;Pokémon&#160;Center&#160;account;&#160;save&#160;payment&#160;+&#160;address&#160;&#160;(Preorders&#160;drop&#160;quietly&#160;~78&#160;days&#160;before&#160;release;&#160;be&#160;ready&#160;</text><text class="terminal-2546621873-r1" x="1708" y="215.2" textLength="12.2" clip-path="url(#terminal-2546621873-line-8)">
</text><text class="terminal-2546621873-r2" x="0" y="239.6" textLength="61" clip-path="url(#terminal-2546621873-line-9)">&#160;✅&#160;&#160;&#160;</text><text class="terminal-2546621873-r2" x="73.2" y="239.6" textLength="219.6" clip-path="url(#terminal-2546621873-line-9)">&#160;Pokémon&#160;Center&#160;&#160;&#160;</text><text class="terminal-2546621873-r2" x="292.8" y="239.6" textLength="1415.2" clip-path="url(#terminal-2546621873-line-9)">&#160;Sign&#160;up&#160;for&#160;the&#160;Pokémon&#160;Center&#160;email&#160;newsletter&#160;&#160;(Main&#160;sanctioned&#160;way&#160;to&#160;catch&#160;quiet&#160;drops&#160;without&#160;hammering&#160;the&#160;si</text><text class="terminal-2546621873-r1" x="1708" y="239.6" textLength="12.2" clip-path="url(#terminal-2546621873-line-9)">
</text><text class="terminal-2546621873-r2" x="0" y="264" textLength="73.2" clip-path="url(#terminal-2546621873-line-10)">&#160;⬜️&#160;&#160;&#160;</text><text class="terminal-2546621873-r2" x="73.2" y="264" textLength="219.6" clip-path="url(#terminal-2546621873-line-10)">&#160;Pokémon&#160;Center&#160;&#160;&#160;</text><text class="terminal-2546621873-r2" x="292.8" y="264" textLength="1415.2" clip-path="url(#terminal-2546621873-line-10)">&#160;Plan&#160;to&#160;disable&#160;VPN/ad-blocker&#160;for&#160;PC&#160;checkout&#160;&#160;(Queue-it&#160;+&#160;DataDome/Imperva&#160;flag&#160;VPNs&#160;&amp;&#160;datacenter&#160;IPs;&#160;they&#160;break</text><text class="terminal-2546621873-r1" x="1708" y="264" textLength="12.2" clip-path="url(#terminal-2546621873-line-10)">
</text><text class="terminal-2546621873-r2" x="0" y="288.4" textLength="73.2" clip-path="url(#terminal-2546621873-line-11)">&#160;⬜️&#160;&#160;&#160;</text><text class="terminal-2546621873-r2" x="73.2" y="288.4" textLength="219.6" clip-path="url(#terminal-2546621873-line-11)">&#160;Target&#160;&#160;&#160;&#160;&#160;&#160;&#160;&#160;&#160;&#160;&#160;</text><text class="terminal-2546621873-r2" x="292.8" y="288.4" textLength="1415.2" clip-path="url(#terminal-2546621873-line-11)">&#160;Create&#160;a&#160;Target&#160;account;&#160;save&#160;payment&#160;+&#160;address&#160;in&#160;the&#160;app&#160;&#160;(The&#160;Target&#160;app&#160;checks&#160;out&#160;faster&#160;than&#160;target.com&#160;on&#160;ho</text><text class="terminal-2546621873-r1" x="1708" y="288.4" textLength="12.2" clip-path="url(#terminal-2546621873-line-11)">
</text><text class="terminal-2546621873-r2" x="0" y="312.8" textLength="73.2" clip-path="url(#terminal-2546621873-line-12)">&#160;⬜️&#160;&#160;&#160;</text><text class="terminal-2546621873-r2" x="73.2" y="312.8" textLength="219.6" clip-path="url(#terminal-2546621873-line-12)">&#160;Target&#160;&#160;&#160;&#160;&#160;&#160;&#160;&#160;&#160;&#160;&#160;</text><text class="terminal-2546621873-r2" x="292.8" y="312.8" textLength="1415.2" clip-path="url(#terminal-2546621873-line-12)">&#160;Consider&#160;a&#160;RedCard&#160;for&#160;5%&#160;off&#160;+&#160;occasional&#160;early&#160;access&#160;&#160;&#160;&#160;&#160;&#160;&#160;&#160;&#160;&#160;&#160;&#160;&#160;&#160;&#160;&#160;&#160;&#160;&#160;&#160;&#160;&#160;&#160;&#160;&#160;&#160;&#160;&#160;&#160;&#160;&#160;&#160;&#160;&#160;&#160;&#160;&#160;&#160;&#160;&#160;&#160;&#160;&#160;&#160;&#160;&#160;&#160;&#160;&#160;&#160;&#160;&#160;&#160;&#160;&#160;&#160;&#160;&#160;&#160;&#160;</text><text class="terminal-2546621873-r1" x="1708" y="312.8" textLength="12.2" clip-path="url(#terminal-2546621873-line-12)">
</text><text class="terminal-2546621873-r2" x="0" y="337.2" textLength="73.2" clip-path="url(#terminal-2546621873-line-13)">&#160;⬜️&#160;&#160;&#160;</text><text class="terminal-2546621873-r2" x="73.2" y="337.2" textLength="219.6" clip-path="url(#terminal-2546621873-line-13)">&#160;Walmart&#160;&#160;&#160;&#160;&#160;&#160;&#160;&#160;&#160;&#160;</text><text class="terminal-2546621873-r2" x="292.8" y="337.2" textLength="1415.2" clip-path="url(#terminal-2546621873-line-13)">&#160;Create&#160;a&#160;Walmart&#160;account;&#160;save&#160;payment&#160;+&#160;address&#160;&#160;(Only&#160;buy&#160;&#x27;Sold&#160;&amp;&#160;shipped&#160;by&#160;Walmart&#x27;.&#160;Keep&#160;qty&#160;to&#160;1–2&#160;—&#160;more&#160;tri</text><text class="terminal-2546621873-r1" x="1708" y="337.2" textLength="12.2" clip-path="url(#terminal-2546621873-line-13)">
</text><text class="terminal-2546621873-r2" x="0" y="361.6" textLength="73.2" clip-path="url(#terminal-2546621873-line-14)">&#160;⬜️&#160;&#160;&#160;</text><text class="terminal-2546621873-r2" x="73.2" y="361.6" textLength="219.6" clip-path="url(#terminal-2546621873-line-14)">&#160;Best&#160;Buy&#160;&#160;&#160;&#160;&#160;&#160;&#160;&#160;&#160;</text><text class="terminal-2546621873-r2" x="292.8" y="361.6" textLength="1415.2" clip-path="url(#terminal-2546621873-line-14)">&#160;Create&#160;a&#160;Best&#160;Buy&#160;account;&#160;save&#160;payment&#160;+&#160;address&#160;&#160;(Restocks&#160;cluster&#160;Tue/Thu&#160;early&#160;mornings.)&#160;&#160;&#160;&#160;&#160;&#160;&#160;&#160;&#160;&#160;&#160;&#160;&#160;&#160;&#160;&#160;&#160;&#160;&#160;&#160;&#160;&#160;</text><text class="terminal-2546621873-r1" x="1708" y="361.6" textLength="12.2" clip-path="url(#terminal-2546621873-line-14)">
</text><text class="terminal-2546621873-r2" x="0" y="386" textLength="73.2" clip-path="url(#terminal-2546621873-line-15)">&#160;⬜️&#160;&#160;&#160;</text><text class="terminal-2546621873-r2" x="73.2" y="386" textLength="219.6" clip-path="url(#terminal-2546621873-line-15)">&#160;Barnes&#160;&amp;&#160;Noble&#160;&#160;&#160;</text><text class="terminal-2546621873-r2" x="292.8" y="386" textLength="1415.2" clip-path="url(#terminal-2546621873-line-15)">&#160;Create&#160;a&#160;BN.com&#160;account;&#160;note&#160;your&#160;local&#160;store&#160;&#160;(Low&#160;bot&#160;competition&#160;—&#160;product&#160;often&#160;lingers.&#160;Great&#160;MSRP&#160;fallback.)</text><text class="terminal-2546621873-r1" x="1708" y="386" textLength="12.2" clip-path="url(#terminal-2546621873-line-15)">
</text><text class="terminal-2546621873-r2" x="0" y="410.4" textLength="73.2" clip-path="url(#terminal-2546621873-line-16)">&#160;⬜️&#160;&#160;&#160;</text><text class="terminal-2546621873-r2" x="73.2" y="410.4" textLength="219.6" clip-path="url(#terminal-2546621873-line-16)">&#160;Sam&#x27;s&#160;Club&#160;&#160;&#160;&#160;&#160;&#160;&#160;</text><text class="terminal-2546621873-r2" x="292.8" y="410.4" textLength="1415.2" clip-path="url(#terminal-2546621873-line-16)">&#160;Have&#160;a&#160;Sam&#x27;s&#160;membership&#160;ready&#160;for&#160;scheduled&#160;online&#160;drops&#160;&#160;(Scheduled&#160;drops&#160;route&#160;through&#160;a&#160;short&#160;(~10–15&#160;min)&#160;queue</text><text class="terminal-2546621873-r1" x="1708" y="410.4" textLength="12.2" clip-path="url(#terminal-2546621873-line-16)">
</text><text class="terminal-2546621873-r2" x="0" y="434.8" textLength="73.2" clip-path="url(#terminal-2546621873-line-17)">&#160;⬜️&#160;&#160;&#160;</text><text class="terminal-2546621873-r2" x="73.2" y="434.8" textLength="219.6" clip-path="url(#terminal-2546621873-line-17)">&#160;Costco&#160;&#160;&#160;&#160;&#160;&#160;&#160;&#160;&#160;&#160;&#160;</text><text class="terminal-2546621873-r2" x="292.8" y="434.8" textLength="1415.2" clip-path="url(#terminal-2546621873-line-17)">&#160;Have&#160;a&#160;Costco&#160;membership;&#160;watch&#160;for&#160;warehouse/online&#160;bundles&#160;&#160;(Bundles&#160;are&#160;warehouse-only,&#160;usually&#160;no&#160;restock&#160;—&#160;the</text><text class="terminal-2546621873-r1" x="1708" y="434.8" textLength="12.2" clip-path="url(#terminal-2546621873-line-17)">
</text><text class="terminal-2546621873-r2" x="0" y="459.2" textLength="73.2" clip-path="url(#terminal-2546621873-line-18)">&#160;⬜️&#160;&#160;&#160;</text><text class="terminal-2546621873-r2" x="73.2" y="459.2" textLength="219.6" clip-path="url(#terminal-2546621873-line-18)">&#160;GameStop&#160;&#160;&#160;&#160;&#160;&#160;&#160;&#160;&#160;</text><text class="terminal-2546621873-r2" x="292.8" y="459.2" textLength="1415.2" clip-path="url(#terminal-2546621873-line-18)">&#160;Plan&#160;for&#160;in-store&#160;walk-in&#160;(TCG&#160;preorders&#160;discontinued&#160;Feb&#160;2025)&#160;&#160;(Ships&#160;direct&#160;to&#160;stores&#160;now;&#160;limit&#160;2/customer&#160;(5&#160;o</text><text class="terminal-2546621873-r1" x="1708" y="459.2" textLength="12.2" clip-path="url(#terminal-2546621873-line-18)">
</text><text class="terminal-2546621873-r9" x="1366.4" y="483.6" textLength="12.2" clip-path="url(#terminal-2546621873-line-19)">▊</text><text class="terminal-2546621873-r1" x="1708" y="483.6" textLength="12.2" clip-path="url(#terminal-2546621873-line-19)">
</text><text class="terminal-2546621873-r1" x="1708" y="508" textLength="12.2" clip-path="url(#terminal-2546621873-line-20)">
</text><text class="terminal-2546621873-r1" x="1708" y="532.4" textLength="12.2" clip-path="url(#terminal-2546621873-line-21)">
</text><text class="terminal-2546621873-r1" x="1708" y="556.8" textLength="12.2" clip-path="url(#terminal-2546621873-line-22)">
</text><text class="terminal-2546621873-r1" x="1708" y="581.2" textLength="12.2" clip-path="url(#terminal-2546621873-line-23)">
</text><text class="terminal-2546621873-r1" x="1708" y="605.6" textLength="12.2" clip-path="url(#terminal-2546621873-line-24)">
</text><text class="terminal-2546621873-r1" x="1708" y="630" textLength="12.2" clip-path="url(#terminal-2546621873-line-25)">
</text><text class="terminal-2546621873-r1" x="1708" y="654.4" textLength="12.2" clip-path="url(#terminal-2546621873-line-26)">
</text><text class="terminal-2546621873-r1" x="1708" y="678.8" textLength="12.2" clip-path="url(#terminal-2546621873-line-27)">
</text><text class="terminal-2546621873-r1" x="1708" y="703.2" textLength="12.2" clip-path="url(#terminal-2546621873-line-28)">
</text><text class="terminal-2546621873-r1" x="1708" y="727.6" textLength="12.2" clip-path="url(#terminal-2546621873-line-29)">
</text><text class="terminal-2546621873-r1" x="1708" y="752" textLength="12.2" clip-path="url(#terminal-2546621873-line-30)">
</text><text class="terminal-2546621873-r1" x="1708" y="776.4" textLength="12.2" clip-path="url(#terminal-2546621873-line-31)">
</text><text class="terminal-2546621873-r1" x="1708" y="800.8" textLength="12.2" clip-path="url(#terminal-2546621873-line-32)">
</text><text class="terminal-2546621873-r1" x="1708" y="825.2" textLength="12.2" clip-path="url(#terminal-2546621873-line-33)">
</text><text class="terminal-2546621873-r1" x="1708" y="849.6" textLength="12.2" clip-path="url(#terminal-2546621873-line-34)">
</text><text class="terminal-2546621873-r10" x="0" y="874" textLength="61" clip-path="url(#terminal-2546621873-line-35)">&#160;esc&#160;</text><text class="terminal-2546621873-r2" x="61" y="874" textLength="61" clip-path="url(#terminal-2546621873-line-35)">Back&#160;</text><text class="terminal-2546621873-r10" x="122" y="874" textLength="36.6" clip-path="url(#terminal-2546621873-line-35)">&#160;c&#160;</text><text class="terminal-2546621873-r2" x="158.6" y="874" textLength="122" clip-path="url(#terminal-2546621873-line-35)">Check&#160;now&#160;</text><text class="terminal-2546621873-r10" x="280.6" y="874" textLength="36.6" clip-path="url(#terminal-2546621873-line-35)">&#160;o&#160;</text><text class="terminal-2546621873-r2" x="317.2" y="874" textLength="158.6" clip-path="url(#terminal-2546621873-line-35)">Open&#160;product&#160;</text><text class="terminal-2546621873-r10" x="475.8" y="874" textLength="36.6" clip-path="url(#terminal-2546621873-line-35)">&#160;p&#160;</text><text class="terminal-2546621873-r2" x="512.4" y="874" textLength="122" clip-path="url(#terminal-2546621873-line-35)">Prep&#160;list&#160;</text><text class="terminal-2546621873-r10" x="634.4" y="874" textLength="36.6" clip-path="url(#terminal-2546621873-line-35)">&#160;q&#160;</text><text class="terminal-2546621873-r2" x="671" y="874" textLength="61" clip-path="url(#terminal-2546621873-line-35)">Quit&#160;</text><text class="terminal-2546621873-r11" x="1561.6" y="874" textLength="12.2" clip-path="url(#terminal-2546621873-line-35)">▏</text><text class="terminal-2546621873-r10" x="1573.8" y="874" textLength="24.4" clip-path="url(#terminal-2546621873-line-35)">^p</text><text class="terminal-2546621873-r2" x="1598.2" y="874" textLength="97.6" clip-path="url(#terminal-2546621873-line-35)">&#160;palette</text>
    </g>
    </g>
</svg>
